<svg width="25" height="25" viewBox="0 0 25 25" fill="none" xmlns="http://www.w3.org/2000/svg">
<path d="M18.8116 10.2096V9.50497C18.8116 5.63623 15.7899 2.5 12.0625 2.5C8.33506 2.5 5.31337 5.63623 5.31337 9.50497V10.2096C5.31337 11.0552 5.07222 11.8818 4.6203 12.5854L3.51286 14.3095C2.50132 15.8843 3.27355 18.0249 5.03286 18.5229C9.63524 19.8257 14.4898 19.8257 19.0921 18.5229C20.8515 18.0249 21.6237 15.8843 20.6121 14.3095L19.5047 12.5854C19.0528 11.8818 18.8116 11.0552 18.8116 10.2096Z" stroke="#69C466" stroke-width="1.5"/>
<path d="M7.5625 19.5C8.21753 21.2478 9.98496 22.5 12.0625 22.5C14.14 22.5 15.9075 21.2478 16.5625 19.5" stroke="#69C466" stroke-width="1.5" stroke-linecap="round"/>
</svg>
