<svg width="69" height="69" viewBox="0 0 69 69" fill="none" xmlns="http://www.w3.org/2000/svg">
<path d="M61.3015 52.4266H60.4319C64.6914 46.8745 67 40.1152 67 33C67 24.4525 63.6714 16.4166 57.6275 10.3725C51.5834 4.32863 43.5475 1 35 1C30.6807 1 26.4899 1.84638 22.5436 3.5155C21.5899 3.91887 21.1439 5.01912 21.5471 5.97275C21.9506 6.9265 23.0501 7.3725 24.0045 6.96925C27.486 5.49662 31.1854 4.75 35 4.75C50.5771 4.75 63.25 17.4229 63.25 33C63.25 38.8696 61.4715 44.4655 58.1701 49.1732C58.1039 48.1979 57.2939 47.4266 56.3016 47.4266C55.2661 47.4266 54.4266 48.2661 54.4266 49.3016V54.3016C54.4266 55.3371 55.2661 56.1766 56.3016 56.1766H61.3015C62.337 56.1766 63.1765 55.3371 63.1765 54.3016C63.1765 53.2661 62.337 52.4266 61.3015 52.4266ZM45.9955 59.0308C42.514 60.5034 38.8146 61.25 35 61.25C19.4229 61.25 6.75 48.5771 6.75 33C6.75 27.1313 8.5295 21.537 11.83 16.8298C11.8977 17.8037 12.7072 18.5734 13.6984 18.5734C14.7339 18.5734 15.5734 17.7339 15.5734 16.6984V11.6984C15.5734 10.6629 14.7339 9.82337 13.6984 9.82337H8.69838C7.66288 9.82337 6.82337 10.6629 6.82337 11.6984C6.82337 12.7339 7.66288 13.5734 8.69838 13.5734H9.57175C5.311 19.1255 3 25.8841 3 33C3 41.5475 6.32863 49.5834 12.3725 55.6275C18.4166 61.6714 26.4525 65 35 65C39.3193 65 43.5101 64.1536 47.4564 62.4845C48.4101 62.0811 48.8561 60.9809 48.4529 60.0272C48.0495 59.0734 46.9496 58.6273 45.9955 59.0308Z" fill="#FF9533"/>
<path d="M51.6152 41.6603C52.1244 40.6878 52.5463 39.672 52.876 38.625H55C56.0355 38.625 56.875 37.7855 56.875 36.75V29.25C56.875 28.2145 56.0355 27.375 55 27.375H52.876C52.5463 26.328 52.1244 25.3122 51.6152 24.3398L53.1196 22.8354C53.8519 22.1031 53.8519 20.916 53.1196 20.1838L47.8162 14.8804C47.0841 14.1481 45.8969 14.1481 45.1646 14.8804L43.6603 16.3848C42.6878 15.8756 41.672 15.4537 40.625 15.124V13C40.625 11.9645 39.7855 11.125 38.75 11.125H31.25C30.2145 11.125 29.375 11.9645 29.375 13V15.124C28.328 15.4537 27.3123 15.8756 26.3398 16.3848L24.8354 14.8804C24.6613 14.7063 24.4546 14.5681 24.2271 14.4739C23.9997 14.3797 23.7558 14.3312 23.5096 14.3312C23.2634 14.3312 23.0196 14.3797 22.7921 14.4739C22.5646 14.5681 22.358 14.7063 22.1839 14.8804L16.8806 20.1838C16.1484 20.916 16.1484 22.1031 16.8806 22.8354L18.3849 24.3398C17.8757 25.3123 17.4538 26.328 17.1241 27.3751H15C13.9645 27.3751 13.125 28.2146 13.125 29.2501V36.7501C13.125 37.7856 13.9645 38.6251 15 38.6251H17.124C17.4537 39.6722 17.8756 40.688 18.3848 41.6605L16.8805 43.1647C16.1482 43.897 16.1482 45.0841 16.8805 45.8164L22.1838 51.1198C22.3578 51.2939 22.5645 51.432 22.792 51.5262C23.0195 51.6205 23.2633 51.669 23.5095 51.669C23.7557 51.669 23.9995 51.6205 24.227 51.5262C24.4545 51.432 24.6612 51.2939 24.8353 51.1198L26.3396 49.6154C27.3121 50.1245 28.3279 50.5464 29.3749 50.8761V53C29.3749 54.0355 30.2144 54.875 31.2499 54.875H38.7499C39.7854 54.875 40.6249 54.0355 40.6249 53V50.876C41.6719 50.5463 42.6876 50.1244 43.6601 49.6152L45.1645 51.1196C45.8966 51.8519 47.0839 51.8519 47.8161 51.1196L53.1195 45.8162C53.8517 45.084 53.8517 43.8969 53.1195 43.1646L51.6152 41.6603ZM35 43C29.486 43 25 38.514 25 33C25 27.486 29.486 23 35 23C40.514 23 45 27.486 45 33C45 38.514 40.514 43 35 43Z" fill="#FF9533"/>
</svg>
