<svg width="28" height="26" viewBox="0 0 28 26" fill="none" xmlns="http://www.w3.org/2000/svg">
<path d="M13.1033 0.816983C13.4701 0.0737376 14.5299 0.0737399 14.8967 0.816985L18.1757 7.46093C18.3214 7.75607 18.6029 7.96064 18.9287 8.00797L26.2607 9.07338C27.0809 9.19256 27.4084 10.2005 26.8149 10.7791L21.5094 15.9507C21.2737 16.1804 21.1662 16.5114 21.2218 16.8358L22.4743 24.1382C22.6144 24.9551 21.7569 25.5781 21.0233 25.1924L14.4653 21.7446C14.174 21.5915 13.826 21.5915 13.5347 21.7446L6.9767 25.1924C6.24307 25.5781 5.38563 24.9551 5.52574 24.1382L6.7782 16.8358C6.83384 16.5114 6.72629 16.1804 6.49061 15.9507L1.1851 10.7791C0.591586 10.2005 0.919094 9.19256 1.73931 9.07338L9.07134 8.00797C9.39705 7.96064 9.67862 7.75607 9.82428 7.46093L13.1033 0.816983Z" fill="white"/>
<path d="M13.5516 1.03827C13.735 0.666646 14.265 0.666644 14.4484 1.03827L17.7274 7.68221C17.9458 8.12493 18.3682 8.43178 18.8568 8.50278L26.1888 9.56818C26.5989 9.62777 26.7626 10.1318 26.4659 10.421L21.1604 15.5926C20.8069 15.9372 20.6455 16.4337 20.729 16.9203L21.9815 24.2227C22.0515 24.6312 21.6228 24.9426 21.256 24.7498L14.698 21.3021C14.261 21.0723 13.739 21.0723 13.302 21.3021L6.74402 24.7498C6.37721 24.9426 5.94849 24.6312 6.01855 24.2227L7.27101 16.9203C7.35446 16.4337 7.19314 15.9372 6.83961 15.5926L1.53411 10.421C1.23735 10.1318 1.40111 9.62777 1.81121 9.56818L9.14324 8.50278C9.63181 8.43178 10.0542 8.12493 10.2726 7.68221L13.5516 1.03827Z" stroke="#272643" stroke-opacity="0.25"/>
</svg>
